HIERARCHY
ROOT Hips
{
	OFFSET 0.000000 0.000000 0.000000
	CHANNELS 6 Xposition Yposition Zposition Xrotation Yrotation Zrotation
	JOINT LeftUpLeg_virtual
	{
		OFFSET 0.000000 0.000000 0.000000
		CHANNELS 3 Xrotation Yrotation Zrotation
		JOINT LeftUpLeg
		{
			OFFSET 11.394100 -6.187798 -0.413800
			CHANNELS 3 Xrotation Yrotation Zrotation
			JOINT LeftLeg
			{
				OFFSET 0.430247 -32.302673 3.732800
				CHANNELS 3 Xrotation Yrotation Zrotation
				JOINT LeftFoot
				{
					OFFSET -0.430247 -48.264931 -6.423300
					CHANNELS 3 Xrotation Yrotation Zrotation
					JOINT LeftToeBase
					{
						OFFSET 4.230900 -16.068199 23.438400
						CHANNELS 3 Xrotation Yrotation Zrotation
						JOINT LeftToe_End
						{
							OFFSET 4.510700 0.695400 19.974600
							CHANNELS 3 Xrotation Yrotation Zrotation
							End Site
							{
								OFFSET 0 0 0
							}
						}
					}
				}
			}
		}
	}
	JOINT RightUpLeg_virtual
	{
		OFFSET 0.000000 0.000000 0.000000
		CHANNELS 3 Xrotation Yrotation Zrotation
		JOINT RightUpLeg
		{
			OFFSET -11.333700 -6.187798 -0.413800
			CHANNELS 3 Xrotation Yrotation Zrotation
			JOINT RightLeg
			{
				OFFSET -0.430392 -32.302628 3.733000
				CHANNELS 3 Xrotation Yrotation Zrotation
				JOINT RightFoot
				{
					OFFSET 0.430392 -48.264973 -6.423500
					CHANNELS 3 Xrotation Yrotation Zrotation
					JOINT RightToeBase
					{
						OFFSET -4.230900 -16.068199 23.438400
						CHANNELS 3 Xrotation Yrotation Zrotation
						JOINT RightToe_End
						{
							OFFSET -4.510700 0.695400 19.974600
							CHANNELS 3 Xrotation Yrotation Zrotation
							End Site
							{
								OFFSET 0 0 0
							}
						}
					}
				}
			}
		}
	}
	JOINT Spine_virtual
	{
		OFFSET 0.000000 0.000000 0.000000
		CHANNELS 3 Xrotation Yrotation Zrotation
		JOINT Spine
		{
			OFFSET -0.002400 12.777504 0.315300
			CHANNELS 3 Xrotation Yrotation Zrotation
			JOINT Spine1
			{
				OFFSET -0.002067 5.816869 0.032633
				CHANNELS 3 Xrotation Yrotation Zrotation
				JOINT Spine1_split
				{
					OFFSET -0.002067 5.816869 0.032633
					CHANNELS 3 Xrotation Yrotation Zrotation
					JOINT Spine2
					{
						OFFSET -0.002067 5.816869 0.032633
						CHANNELS 3 Xrotation Yrotation Zrotation
						JOINT Neck_virtual
						{
							OFFSET 0.000000 0.000000 0.000000
							CHANNELS 3 Xrotation Yrotation Zrotation
							JOINT Neck
							{
								OFFSET -0.003700 21.199493 -0.826900
								CHANNELS 3 Xrotation Yrotation Zrotation
								JOINT Head
								{
									OFFSET 0.000000 20.442200 4.834800
									CHANNELS 3 Xrotation Yrotation Zrotation
									JOINT HeadTop_End
									{
										OFFSET 0.000000 34.668396 4.968400
										CHANNELS 3 Xrotation Yrotation Zrotation
										End Site
										{
											OFFSET 0 0 0
										}
									}
								}
							}
						}
						JOINT LeftShoulder_virtual
						{
							OFFSET 0.000000 0.000000 0.000000
							CHANNELS 3 Xrotation Yrotation Zrotation
							JOINT LeftShoulder
							{
								OFFSET 3.288150 8.794197 -1.372250
								CHANNELS 3 Xrotation Yrotation Zrotation
								JOINT LeftShoulder_split
								{
									OFFSET 3.288150 8.794197 -1.372250
									CHANNELS 3 Xrotation Yrotation Zrotation
									JOINT LeftArm
									{
										OFFSET 11.953299 -2.279007 -0.146200
										CHANNELS 3 Xrotation Yrotation Zrotation
										JOINT LeftForeArm
										{
											OFFSET 18.448900 0.000000 0.000000
											CHANNELS 3 Xrotation Yrotation Zrotation
											JOINT LeftHand
											{
												OFFSET 29.527798 0.000000 0.000000
												CHANNELS 3 Xrotation Yrotation Zrotation
												End Site
												{
													OFFSET 0 0 0
												}
											}
										}
									}
								}
							}
						}
						JOINT RightShoulder_virtual
						{
							OFFSET 0.000000 0.000000 0.000000
							CHANNELS 3 Xrotation Yrotation Zrotation
							JOINT RightShoulder
							{
								OFFSET -3.249400 8.794197 -1.372250
								CHANNELS 3 Xrotation Yrotation Zrotation
								JOINT RightShoulder_split
								{
									OFFSET -3.249400 8.794197 -1.372250
									CHANNELS 3 Xrotation Yrotation Zrotation
									JOINT RightArm
									{
										OFFSET -11.953299 -2.279007 -0.146200
										CHANNELS 3 Xrotation Yrotation Zrotation
										JOINT RightForeArm
										{
											OFFSET -18.448900 0.000000 0.000000
											CHANNELS 3 Xrotation Yrotation Zrotation
											JOINT RightHand
											{
												OFFSET -29.527802 0.000000 0.000000
												CHANNELS 3 Xrotation Yrotation Zrotation
												End Site
												{
													OFFSET 0 0 0
												}
											}
										}
									}
								}
							}
						}
					}
				}
			}
		}
	}
}
MOTION
Frames: 5
Frame Time: 0.03333333
-0.024434 97.117287 -0.287880 0.000000 0.000000 0.000000 1.528517 -26.752891 0.769039 -32.018066 24.990860 14.753649 26.811026 8.715270 10.471458 0.920068 0.285476 -11.037317 0.000000 0.000000 -0.000005 0.000000 0.000000 0.000000 1.528517 -26.752891 0.769039 -22.588836 -16.158885 -9.529689 31.197241 -2.035955 -7.158165 -10.620142 -1.476270 10.490474 -0.000020 0.000009 0.000001 0.000000 0.000000 0.000000 1.528517 -26.752891 0.769039 4.028565 -1.432798 0.660662 1.504778 -0.576864 0.097090 0.000000 0.000000 0.000000 0.000000 0.000000 0.000000 1.507367 -0.569391 0.100619 -2.626394 4.193301 2.853713 16.723302 24.085798 -12.361637 0.000000 0.000000 0.000000 1.507367 -0.569391 0.100619 -0.279650 3.035684 5.768248 0.000000 0.000000 0.000000 -51.680906 -1.342412 -53.222897 0.003540 -85.775852 0.003480 0.000000 0.000000 0.000000 1.507367 -0.569391 0.100619 -1.120090 -11.901471 10.263994 0.000000 0.000000 0.000000 -58.262149 66.059493 74.030030 0.001205 83.625510 -0.001218 0.000000 0.000000 0.000000 
-0.031346 97.112206 -0.274544 0.000000 0.000000 0.000000 1.562289 -26.742610 0.796958 -32.070088 25.058649 14.769692 26.834094 8.638808 10.470232 0.902928 0.287681 -11.024335 -0.000000 -0.000001 -0.000005 0.000000 0.000000 0.000000 1.562289 -26.742610 0.796958 -22.660797 -16.333651 -9.534270 31.219067 -1.894992 -7.276113 -10.639080 -1.477856 10.498723 -0.000020 0.000009 0.000001 0.000000 0.000000 0.000000 1.562289 -26.742610 0.796958 4.004127 -1.446923 0.668984 1.495334 -0.584008 0.101199 0.000000 0.000000 0.000000 0.000000 0.000000 0.000000 1.497948 -0.576593 0.104755 -2.617658 4.198874 2.840607 16.741157 24.081483 -12.364075 0.000000 0.000000 0.000000 1.497948 -0.576593 0.104755 -0.281258 3.073346 5.677565 0.000000 0.000000 0.000000 -51.670863 -1.468559 -53.178753 -0.002385 -85.685338 -0.002458 0.000000 0.000000 0.000000 1.497948 -0.576593 0.104755 -1.122338 -11.917097 10.268322 0.000000 0.000000 0.000000 -58.331974 66.132733 74.039886 0.000170 83.601037 -0.000215 0.000000 0.000000 0.000000 
-0.038006 97.105782 -0.261532 0.000000 0.000000 0.000000 1.593418 -26.732957 0.816243 -32.148369 25.166839 14.816038 26.873828 8.512997 10.468714 0.878826 0.291891 -11.001006 -0.000000 -0.000001 -0.000005 0.000000 0.000000 0.000000 1.593418 -26.732957 0.816243 -22.730501 -16.519554 -9.531138 31.240653 -1.761078 -7.397670 -10.656254 -1.479590 10.507601 -0.000020 0.000010 0.000001 0.000000 0.000000 0.000000 1.593418 -26.732957 0.816243 3.981691 -1.464935 0.679587 1.486641 -0.592411 0.106144 0.000000 0.000000 0.000000 0.000000 0.000000 0.000000 1.489282 -0.585010 0.109741 -2.597498 4.205261 2.830452 16.748247 24.084229 -12.349542 0.000000 0.000000 0.000000 1.489282 -0.585010 0.109741 -0.280617 3.096283 5.589872 0.000000 0.000000 0.000000 -51.690595 -1.583853 -53.118856 0.000124 -85.585453 0.000076 0.000000 0.000000 0.000000 1.489282 -0.585010 0.109741 -1.123876 -11.917866 10.255501 0.000000 0.000000 0.000000 -58.375810 66.174711 74.048055 0.000523 83.587814 -0.000547 0.000000 0.000000 0.000000 
-0.043719 97.099983 -0.251228 0.000000 0.000000 0.000000 1.612485 -26.743647 0.831107 -32.229825 25.323748 14.886128 26.915964 8.355293 10.467045 0.851891 0.297962 -10.970825 0.000000 0.000000 -0.000005 0.000000 0.000000 0.000000 1.612485 -26.743647 0.831107 -22.792840 -16.688635 -9.526678 31.263668 -1.628488 -7.511396 -10.669114 -1.481281 10.511674 -0.000020 0.000009 0.000001 0.000000 0.000000 0.000000 1.612485 -26.743647 0.831107 3.960187 -1.488376 0.694151 1.478282 -0.603049 0.112586 0.000000 0.000000 0.000000 0.000000 0.000000 0.000000 1.480962 -0.595703 0.116255 -2.563257 4.215698 2.818926 16.753669 24.101323 -12.330662 0.000000 0.000000 0.000000 1.480962 -0.595703 0.116255 -0.278180 3.105551 5.508491 0.000000 0.000000 0.000000 -51.749598 -1.681445 -53.046015 0.001908 -85.462271 0.001895 0.000000 0.000000 0.000000 1.480962 -0.595703 0.116255 -1.124836 -11.896568 10.214327 0.000000 0.000000 0.000000 -58.411880 66.194772 74.072869 -0.000003 83.568334 -0.000010 0.000000 0.000000 0.000000 
-0.048274 97.095390 -0.242401 0.000000 0.000000 0.000000 1.619575 -26.775118 0.847914 -32.288261 25.487681 14.951948 26.948365 8.215142 10.465343 0.826364 0.303886 -10.944812 -0.000000 -0.000001 -0.000005 0.000000 0.000000 0.000000 1.619575 -26.775118 0.847914 -22.851515 -16.844358 -9.528816 31.290217 -1.484538 -7.620531 -10.679546 -1.482064 10.510847 -0.000020 0.000010 0.000001 0.000000 0.000000 0.000000 1.619575 -26.775118 0.847914 3.937797 -1.518489 0.714402 1.469574 -0.616831 0.121217 0.000000 0.000000 0.000000 0.000000 0.000000 0.000000 1.472289 -0.609529 0.124994 -2.515643 4.233235 2.801236 16.766262 24.138167 -12.322950 0.000000 0.000000 0.000000 1.472289 -0.609529 0.124994 -0.274757 3.106071 5.433143 0.000000 0.000000 0.000000 -51.851750 -1.757036 -52.965293 0.001324 -85.308229 0.001337 0.000000 0.000000 0.000000 1.472289 -0.609529 0.124994 -1.125856 -11.846165 10.129922 0.000000 0.000000 0.000000 -58.466126 66.199129 74.137940 0.000421 83.527128 -0.000465 0.000000 0.000000 0.000000 
